<svg width="128" height="32" viewBox="0 0 128 32" fill="none" xmlns="http://www.w3.org/2000/svg">
<path d="M9.7856 24.9492C8.64395 24.9492 7.59549 24.7232 6.64023 24.2712C5.68497 23.7966 4.90445 23.1751 4.29868 22.4068C3.6929 21.6158 3.34341 20.7345 3.25022 19.7627V12.8136C3.34341 11.8418 3.6929 10.983 4.29868 10.2373C4.90445 9.46893 5.68497 8.87006 6.64023 8.44068C7.59549 8.0113 8.64395 7.79661 9.7856 7.79661C11.3932 7.79661 12.8145 8.16949 14.0493 8.91525C15.3075 9.66102 16.286 10.678 16.985 11.9661C17.7073 13.2542 18.0684 14.7232 18.0684 16.3729C18.0684 18.0226 17.7073 19.4915 16.985 20.7797C16.286 22.0678 15.3075 23.0847 14.0493 23.8305C12.8145 24.5763 11.3932 24.9492 9.7856 24.9492ZM8.84199 20.2712C9.58756 20.2712 10.2399 20.1017 10.7991 19.7627C11.3816 19.4237 11.8359 18.9605 12.1621 18.3729C12.4883 17.7853 12.6514 17.1186 12.6514 16.3729C12.6514 15.6045 12.4883 14.9266 12.1621 14.339C11.8359 13.7514 11.3816 13.2994 10.7991 12.9831C10.2399 12.6441 9.58756 12.4746 8.84199 12.4746C8.09642 12.4746 7.4324 12.6441 6.84992 12.9831C6.26745 13.2994 5.81311 13.7514 5.48693 14.339C5.18404 14.9266 5.0326 15.6045 5.0326 16.3729C5.0326 17.1412 5.19569 17.8192 5.52188 18.4068C5.84806 18.9944 6.29075 19.4576 6.84992 19.7966C7.4324 20.113 8.09642 20.2712 8.84199 20.2712ZM0 24.6102V0H5.34713V12.1695L4.47342 16.1695L5.27724 20.1695V24.6102H0Z" fill="#2DE2E2"/>
<path d="M20.7849 24.6102V0H26.132V24.6102H20.7849Z" fill="#2DE2E2"/>
<path d="M38.0754 24.9831C36.328 24.9831 34.7436 24.6102 33.3224 23.8644C31.9244 23.096 30.8177 22.0565 30.0023 20.7458C29.1868 19.435 28.7791 17.9661 28.7791 16.339C28.7791 14.7119 29.1868 13.2542 30.0023 11.9661C30.8177 10.678 31.9244 9.66102 33.3224 8.91525C34.7203 8.14689 36.3047 7.76271 38.0754 7.76271C39.8461 7.76271 41.4305 8.13559 42.8284 8.88136C44.2263 9.62712 45.333 10.6554 46.1485 11.9661C46.964 13.2542 47.3717 14.7119 47.3717 16.339C47.3717 17.9661 46.964 19.435 46.1485 20.7458C45.333 22.0565 44.2263 23.096 42.8284 23.8644C41.4305 24.6102 39.8461 24.9831 38.0754 24.9831ZM38.0754 20.2712C38.8443 20.2712 39.5199 20.113 40.1024 19.7966C40.6849 19.4576 41.1276 18.9944 41.4305 18.4068C41.7566 17.7966 41.9197 17.1073 41.9197 16.339C41.9197 15.5706 41.7566 14.904 41.4305 14.339C41.1043 13.7514 40.6499 13.2994 40.0675 12.9831C39.5083 12.6441 38.8443 12.4746 38.0754 12.4746C37.3298 12.4746 36.6658 12.6441 36.0833 12.9831C35.5008 13.2994 35.0465 13.7514 34.7203 14.339C34.3941 14.9266 34.231 15.6045 34.231 16.3729C34.231 17.1186 34.3941 17.7966 34.7203 18.4068C35.0465 18.9944 35.5008 19.4576 36.0833 19.7966C36.6658 20.113 37.3298 20.2712 38.0754 20.2712Z" fill="#2DE2E2"/>
<path d="M57.2332 32C55.3693 32 53.7267 31.6836 52.3055 31.0508C50.9075 30.4407 49.8008 29.5706 48.9854 28.4407L52.2705 25.2542C52.8763 25.9548 53.552 26.4859 54.2975 26.8475C55.0664 27.209 55.9867 27.3898 57.0585 27.3898C58.3865 27.3898 59.4233 27.0734 60.1689 26.4407C60.9378 25.8079 61.3222 24.9153 61.3222 23.7627V19.5593L62.2309 15.9661L61.4271 12.3729V8.13559H66.6693V23.6271C66.6693 25.322 66.2616 26.791 65.4461 28.0339C64.6307 29.2768 63.5123 30.2486 62.0911 30.9492C60.6698 31.6497 59.0505 32 57.2332 32ZM56.9886 24.1017C55.4275 24.1017 54.0412 23.7401 52.8297 23.0169C51.6181 22.2938 50.6629 21.3107 49.9639 20.0678C49.2649 18.8249 48.9155 17.4463 48.9155 15.9322C48.9155 14.3955 49.2649 13.017 49.9639 11.7966C50.6629 10.5537 51.6181 9.58192 52.8297 8.88136C54.0412 8.15819 55.4275 7.79661 56.9886 7.79661C58.1535 7.79661 59.1903 8.0113 60.099 8.44068C61.031 8.84746 61.7765 9.43503 62.3357 10.2034C62.9182 10.9492 63.2444 11.8192 63.3143 12.8136V19.0847C63.2444 20.0565 62.9182 20.9266 62.3357 21.6949C61.7765 22.4407 61.031 23.0282 60.099 23.4576C59.167 23.887 58.1302 24.1017 56.9886 24.1017ZM58.0021 19.4915C58.7477 19.4915 59.3884 19.3333 59.9243 19.0169C60.4834 18.7006 60.9028 18.2825 61.1824 17.7627C61.4853 17.2203 61.6367 16.6102 61.6367 15.9322C61.6367 15.2542 61.4853 14.6441 61.1824 14.1017C60.9028 13.5593 60.4834 13.1299 59.9243 12.8136C59.3884 12.4972 58.7477 12.339 58.0021 12.339C57.2798 12.339 56.6391 12.4972 56.0799 12.8136C55.5207 13.1299 55.0897 13.5593 54.7868 14.1017C54.4839 14.6441 54.3325 15.2542 54.3325 15.9322C54.3325 16.565 54.4839 17.1638 54.7868 17.7288C55.0897 18.2712 55.5091 18.7006 56.045 19.0169C56.6041 19.3333 57.2565 19.4915 58.0021 19.4915Z" fill="#2DE2E2"/>
<path d="M77.6776 24.9492C76.07 24.9492 74.6371 24.5763 73.3789 23.8305C72.1441 23.0847 71.1655 22.0678 70.4432 20.7797C69.7443 19.4915 69.3948 18.0226 69.3948 16.3729C69.3948 14.7232 69.7443 13.2542 70.4432 11.9661C71.1655 10.678 72.1441 9.66102 73.3789 8.91525C74.6371 8.16949 76.07 7.79661 77.6776 7.79661C78.8425 7.79661 79.891 8.0113 80.823 8.44068C81.7782 8.87006 82.5587 9.46893 83.1645 10.2373C83.7936 10.983 84.1431 11.8418 84.213 12.8136V19.7627C84.1431 20.7345 83.8052 21.6158 83.1995 22.4068C82.5937 23.1751 81.8132 23.7966 80.8579 24.2712C79.9026 24.7232 78.8425 24.9492 77.6776 24.9492ZM78.6212 20.2712C79.3901 20.2712 80.0541 20.113 80.6133 19.7966C81.1724 19.4576 81.6151 18.9944 81.9413 18.4068C82.2675 17.8192 82.4306 17.1412 82.4306 16.3729C82.4306 15.6045 82.2675 14.9379 81.9413 14.3729C81.6384 13.7853 81.1957 13.322 80.6133 12.9831C80.0541 12.6441 79.4017 12.4746 78.6561 12.4746C77.9106 12.4746 77.2466 12.6441 76.6641 12.9831C76.1049 13.322 75.6506 13.7853 75.3011 14.3729C74.9749 14.9605 74.8118 15.6271 74.8118 16.3729C74.8118 17.1186 74.9749 17.7853 75.3011 18.3729C75.6273 18.9605 76.0816 19.4237 76.6641 19.7627C77.2466 20.1017 77.8989 20.2712 78.6212 20.2712ZM87.4632 24.6102H82.2209V20.1695L83.0247 16.1695L82.1161 12.1695V0H87.4632V24.6102Z" fill="#2DE2E2"/>
<path d="M99.4061 24.9831C97.6586 24.9831 96.0743 24.6102 94.653 23.8644C93.2551 23.096 92.1484 22.0565 91.3329 20.7458C90.5175 19.435 90.1097 17.9661 90.1097 16.339C90.1097 14.7119 90.5175 13.2542 91.3329 11.9661C92.1484 10.678 93.2551 9.66102 94.653 8.91525C96.051 8.14689 97.6353 7.76271 99.4061 7.76271C101.177 7.76271 102.761 8.13559 104.159 8.88136C105.557 9.62712 106.664 10.6554 107.479 11.9661C108.295 13.2542 108.702 14.7119 108.702 16.339C108.702 17.9661 108.295 19.435 107.479 20.7458C106.664 22.0565 105.557 23.096 104.159 23.8644C102.761 24.6102 101.177 24.9831 99.4061 24.9831ZM99.4061 20.2712C100.175 20.2712 100.851 20.113 101.433 19.7966C102.016 19.4576 102.458 18.9944 102.761 18.4068C103.087 17.7966 103.25 17.1073 103.25 16.339C103.25 15.5706 103.087 14.904 102.761 14.339C102.435 13.7514 101.981 13.2994 101.398 12.9831C100.839 12.6441 100.175 12.4746 99.4061 12.4746C98.6605 12.4746 97.9965 12.6441 97.414 12.9831C96.8315 13.2994 96.3772 13.7514 96.051 14.339C95.7248 14.9266 95.5617 15.6045 95.5617 16.3729C95.5617 17.1186 95.7248 17.7966 96.051 18.4068C96.3772 18.9944 96.8315 19.4576 97.414 19.7966C97.9965 20.113 98.6605 20.2712 99.4061 20.2712Z" fill="#2DE2E2"/>
<path d="M118.564 32C116.7 32 115.057 31.6836 113.636 31.0508C112.238 30.4407 111.131 29.5706 110.316 28.4407L113.601 25.2542C114.207 25.9548 114.883 26.4859 115.628 26.8475C116.397 27.209 117.317 27.3898 118.389 27.3898C119.717 27.3898 120.754 27.0734 121.5 26.4407C122.268 25.8079 122.653 24.9153 122.653 23.7627V19.5593L123.562 15.9661L122.758 12.3729V8.13559H128V23.6271C128 25.322 127.592 26.791 126.777 28.0339C125.961 29.2768 124.843 30.2486 123.422 30.9492C122 31.6497 120.381 32 118.564 32ZM118.319 24.1017C116.758 24.1017 115.372 23.7401 114.16 23.0169C112.949 22.2938 111.994 21.3107 111.295 20.0678C110.596 18.8249 110.246 17.4463 110.246 15.9322C110.246 14.3955 110.596 13.017 111.295 11.7966C111.994 10.5537 112.949 9.58192 114.16 8.88136C115.372 8.15819 116.758 7.79661 118.319 7.79661C119.484 7.79661 120.521 8.0113 121.43 8.44068C122.362 8.84746 123.107 9.43503 123.666 10.2034C124.249 10.9492 124.575 11.8192 124.645 12.8136V19.0847C124.575 20.0565 124.249 20.9266 123.666 21.6949C123.107 22.4407 122.362 23.0282 121.43 23.4576C120.498 23.887 119.461 24.1017 118.319 24.1017ZM119.333 19.4915C120.078 19.4915 120.719 19.3333 121.255 19.0169C121.814 18.7006 122.233 18.2825 122.513 17.7627C122.816 17.2203 122.967 16.6102 122.967 15.9322C122.967 15.2542 122.816 14.6441 122.513 14.1017C122.233 13.5593 121.814 13.1299 121.255 12.8136C120.719 12.4972 120.078 12.339 119.333 12.339C118.61 12.339 117.97 12.4972 117.411 12.8136C116.851 13.1299 116.42 13.5593 116.117 14.1017C115.815 14.6441 115.663 15.2542 115.663 15.9322C115.663 16.565 115.815 17.1638 116.117 17.7288C116.42 18.2712 116.84 18.7006 117.376 19.0169C117.935 19.3333 118.587 19.4915 119.333 19.4915Z" fill="#2DE2E2"/>
</svg>
